name C:\Users\u0101727\Documents\MyRepositories\upper-imu-dc\Results\main_tracking\Case_24\kinematics.mot
datacolumns 10
datarows 42
range 1.12000000 1.53000000
endheader 
time	clav_prot	clav_elev	scapula_abduction	scapula_elevation	scapula_upward_rot	scapula_winging	plane_elv	shoulder_elv	axial_rot	
          1.12000000	        -20.77008078	          4.28725685	         -7.23959132	          0.61667892	         20.66474342	          1.42960723	         -6.54506926	         12.97536972	         30.04783314	
          1.13000000	        -19.89107493	          4.98269208	         -6.09659701	          1.24486481	         20.41832155	          1.38888920	         -6.02949805	         12.90638938	         30.09763724	
          1.14000000	        -18.91157720	          5.64348714	         -4.74148788	          1.84695247	         20.18910832	          1.33167796	         -5.58669884	         12.82870451	         30.13484278	
          1.15000000	        -18.25157151	          6.20872175	         -3.80900310	          2.31799851	         20.12849284	          1.25723495	         -5.18446678	         12.65190052	         30.11224580	
          1.16000000	        -17.88767806	          6.66988215	         -3.24106189	          2.64709242	         20.26224428	          1.16326226	         -4.78869309	         12.36841857	         29.99883316	
          1.17000000	        -17.74908356	          7.05438063	         -2.94193274	          2.86653316	         20.55985473	          1.05176039	         -4.38687473	         12.00771705	         29.78442861	
          1.18000000	        -17.75613698	          7.39602269	         -2.81140289	          3.01781417	         20.97440311	          0.92580282	         -3.98478677	         11.60836984	         29.47954196	
          1.19000000	        -17.84091056	          7.72231426	         -2.76514125	          3.13599283	         21.46272085	          0.78862743	         -3.59696477	         11.20323570	         29.11040606	
          1.20000000	        -17.95521584	          8.05143238	         -2.74364634	          3.24513992	         21.99304247	          0.64334267	         -3.23626333	         10.81361066	         28.71084422	
          1.21000000	        -18.07067639	          8.39347135	         -2.71252829	          3.35919047	         22.54561914	          0.49270017	         -2.90656026	         10.44900395	         28.31394084	
          1.22000000	        -18.17484588	          8.75280779	         -2.65803237	          3.48464368	         23.11004145	          0.33899682	         -2.59990012	         10.10990141	         27.94554687	
          1.23000000	        -18.26607115	          9.13026294	         -2.58087275	          3.62337997	         23.68161279	          0.18416972	         -2.29759973	          9.79152420	         27.62053345	
          1.24000000	        -18.34872196	          9.52484140	         -2.49036825	          3.77499941	         24.25817165	          0.02999384	         -1.97364070	          9.48714843	         27.34165033	
          1.25000000	        -18.42963056	          9.93519515	         -2.39997318	          3.93858610	         24.83806656	         -0.12175735	         -1.59840845	          9.19018205	         27.10008098	
          1.26000000	        -18.51601254	         10.36087269	         -2.32454826	          4.11390124	         25.41946243	         -0.26928209	         -1.14153989	          8.89480627	         26.87669212	
          1.27000000	        -18.61470485	         10.80319619	         -2.27906356	          4.30195200	         26.00081532	         -0.41089329	         -0.57392380	          8.59541777	         26.64358740	
          1.28000000	        -18.73229466	         11.26543348	         -2.27803519	          4.50482051	         26.58211733	         -0.54533819	          0.13026594	          8.28537956	         26.36624015	
          1.29000000	        -18.87563445	         11.75180891	         -2.33498123	          4.72460322	         27.16625495	         -0.67224886	          0.99090630	          7.95584610	         26.00660997	
          1.30000000	        -19.05224706	         12.26480343	         -2.46138575	          4.96130546	         27.75949125	         -0.79261095	          2.01889237	          7.59574493	         25.52745554	
          1.31000000	        -19.27014159	         12.80020494	         -2.66497811	          5.20962016	         28.36967537	         -0.90904257	          3.21361543	          7.19436810	         24.89772991	
          1.32000000	        -19.53670290	         13.33976402	         -2.94782800	          5.45485151	         29.00049159	         -1.02551014	          4.56165409	          6.74821862	         24.09853089	
          1.33000000	        -19.85684525	         13.84268862	         -3.30665241	          5.66921088	         29.64006496	         -1.14571492	          6.03703074	          6.27351875	         23.12838861	
          1.34000000	        -20.23311814	         14.24093434	         -3.74282278	          5.81169354	         30.24497087	         -1.26918126	          7.60212272	          5.82251562	         22.00715873	
          1.35000000	        -20.67012096	         14.45627049	         -4.29103755	          5.84281122	         30.72777542	         -1.38401008	          9.20921041	          5.49219636	         20.77811853	
          1.36000000	        -21.67878111	         14.52764395	         -6.02352347	          5.78300251	         30.98092974	         -1.46123142	         10.80967237	          5.38410620	         19.49563797	
          1.37000000	        -21.14054640	         14.42799148	         -4.90472461	          5.72948711	         31.03816086	         -1.48666215	         12.35653431	          5.43639360	         18.21299518	
          1.38000000	        -21.56340803	         14.46336868	         -5.74277751	          5.73598812	         31.01271806	         -1.47839007	         13.83089343	          5.52407409	         16.97345823	
          1.39000000	        -20.66857563	         14.53290968	         -4.09233881	          5.83844858	         31.01460110	         -1.46482480	         15.21918477	          5.53106727	         15.81575095	
          1.40000000	        -20.83931822	         14.81467419	         -4.47960415	          6.01139100	         31.13126867	         -1.45667444	         16.52565104	          5.38807414	         14.76272380	
          1.41000000	        -20.57455120	         15.13013505	         -3.98997867	          6.21576231	         31.33333104	         -1.47167459	         17.74604095	          5.14058043	         13.83927618	
          1.42000000	        -20.67613839	         15.49419405	         -4.17302159	          6.42223957	         31.59806846	         -1.49315361	         18.87848230	          4.83100886	         13.05525737	
          1.43000000	        -20.70013153	         15.83079686	         -4.18491867	          6.61089168	         31.87324975	         -1.52105460	         19.92852709	          4.52002006	         12.40927235	
          1.44000000	        -20.71808341	         16.11868894	         -4.17311236	          6.76819676	         32.12961995	         -1.54985993	         20.89814062	          4.24243162	         11.89065650	
          1.45000000	        -20.74788270	         16.34939761	         -4.17839986	          6.88984815	         32.35277700	         -1.57748781	         21.78875661	          4.01293250	         11.48260521	
          1.46000000	        -20.78800380	         16.52255763	         -4.20164265	          6.97664366	         32.53762387	         -1.60327342	         22.60056052	          3.83414307	         11.16546928	
          1.47000000	        -20.83654988	         16.64191999	         -4.24240104	          7.03165470	         32.68283190	         -1.62669105	         23.33382385	          3.70399020	         10.91905544	
          1.48000000	        -20.89386516	         16.71330424	         -4.30446660	          7.05900824	         32.78876773	         -1.64710260	         23.98925400	          3.61872213	         10.72502684	
          1.49000000	        -20.96458350	         16.74421713	         -4.40006034	          7.06361363	         32.85687262	         -1.66373757	         24.56808315	          3.57402110	         10.56843479	
          1.50000000	        -21.04514471	         16.74269460	         -4.52487403	          7.05098621	         32.88990859	         -1.67593831	         25.07127023	          3.56491796	         10.43933433	
          1.51000000	        -21.06577609	         16.71940879	         -4.53512048	          7.02917267	         32.90687881	         -1.68649300	         25.49950587	          3.56958093	         10.33132445	
          1.52000000	        -21.20404392	         16.70729827	         -4.77139154	          7.00710709	         32.93118990	         -1.69943154	         25.85217289	          3.56152739	         10.24189614	
          1.53000000	        -21.35339337	         16.70767942	         -5.02484189	          6.99077079	         32.96873165	         -1.71509101	         26.12139823	          3.53277757	         10.17440578	
